<?xml version="1.0" encoding="utf-8"?>
<!-- Generator: Adobe Illustrator 22.0.1, SVG Export Plug-In . SVG Version: 6.00 Build 0)  -->
<svg version="1.1" xmlns="http://www.w3.org/2000/svg" xmlns:xlink="http://www.w3.org/1999/xlink" x="0px" y="0px"
   viewBox="0 0 512 512" style="enable-background:new 0 0 512 512;" xml:space="preserve">
<style type="text/css">
  .st0{fill:#1D1D1B;}
  .st1{fill:#FFFFFF;stroke:#1D1D1B;stroke-width:16;stroke-linecap:round;stroke-linejoin:round;stroke-miterlimit:10;}
  .st2{fill:none;stroke:#1D1D1B;stroke-width:8;stroke-linecap:round;stroke-linejoin:round;stroke-miterlimit:10;}
  .st3{fill:#FFFFFF;stroke:#1D1D1B;stroke-width:8;stroke-linecap:round;stroke-linejoin:round;stroke-miterlimit:10;}
  .st4{fill:#12100B;}
</style>
<g id="Capa_1">
  <g>
    <path class="st0" d="M256,24c31.3,0,61.7,6.1,90.3,18.2c27.6,11.7,52.4,28.4,73.8,49.7c21.3,21.3,38,46.1,49.7,73.8
      c12.1,28.6,18.2,59,18.2,90.3s-6.1,61.7-18.2,90.3c-11.7,27.6-28.4,52.4-49.7,73.8c-21.3,21.3-46.1,38-73.8,49.7
      c-28.6,12.1-59,18.2-90.3,18.2s-61.7-6.1-90.3-18.2c-27.6-11.7-52.4-28.4-73.8-49.7c-21.3-21.3-38-46.1-49.7-73.8
      C30.1,317.7,24,287.3,24,256s6.1-61.7,18.2-90.3c11.7-27.6,28.4-52.4,49.7-73.8c21.3-21.3,46.1-38,73.8-49.7
      C194.3,30.1,224.7,24,256,24 M256,4C116.8,4,4,116.8,4,256s112.8,252,252,252s252-112.8,252-252S395.2,4,256,4L256,4z"/>
  </g>
</g>
<g id="Capa_2">
  <g>
    <rect x="117.2" y="206.9" class="st1" width="203.2" height="170.7"/>
    <polygon class="st1" points="320.4,206.9 391.8,162.4 391.8,333 320.4,377.6"/>
    <g>
      <polygon class="st1" points="117.2,206.9 188.6,162.4 391.8,162.4 320.4,206.9"/>
    </g>
    <polyline class="st2" points="300.4,187.4 288.2,187.4 238.3,187.4 208.6,187.4"/>
    <path class="st3" d="M309.2,116.3l-21,71.1h-49.9l-7.6-2.2c-5-1.5-7.9-6.8-6.4-11.8l22.4-75.6c1.5-5,6.8-7.9,11.8-6.4l44.3,13.1
      C307.8,106,310.7,111.3,309.2,116.3z"/>
  </g>
</g>
</svg>
