<?xml version="1.0" encoding="utf-8"?>
<!-- Generator: Adobe Illustrator 22.0.1, SVG Export Plug-In . SVG Version: 6.00 Build 0)  -->
<svg version="1.1" xmlns="http://www.w3.org/2000/svg" xmlns:xlink="http://www.w3.org/1999/xlink" x="0px" y="0px"
   viewBox="0 0 512 512" style="enable-background:new 0 0 512 512;" xml:space="preserve">
<style type="text/css">
  .st0{fill:#1D1D1B;}
  .st1{fill:#FFFFFF;stroke:#1D1D1B;stroke-width:16;stroke-linecap:round;stroke-linejoin:round;stroke-miterlimit:10;}
  .st2{fill:none;stroke:#1D1D1B;stroke-width:8;stroke-linecap:round;stroke-linejoin:round;stroke-miterlimit:10;}
  .st3{fill:#FFFFFF;stroke:#1D1D1B;stroke-width:8;stroke-linecap:round;stroke-linejoin:round;stroke-miterlimit:10;}
  .st4{fill:#12100B;}
</style>
<g id="Capa_1">
  <g>
    <path class="st0" d="M256,24c31.3,0,61.7,6.1,90.3,18.2c27.6,11.7,52.4,28.4,73.8,49.7c21.3,21.3,38,46.1,49.7,73.8
      c12.1,28.6,18.2,59,18.2,90.3s-6.1,61.7-18.2,90.3c-11.7,27.6-28.4,52.4-49.7,73.8c-21.3,21.3-46.1,38-73.8,49.7
      c-28.6,12.1-59,18.2-90.3,18.2s-61.7-6.1-90.3-18.2c-27.6-11.7-52.4-28.4-73.8-49.7c-21.3-21.3-38-46.1-49.7-73.8
      C30.1,317.7,24,287.3,24,256s6.1-61.7,18.2-90.3c11.7-27.6,28.4-52.4,49.7-73.8c21.3-21.3,46.1-38,73.8-49.7
      C194.3,30.1,224.7,24,256,24 M256,4C116.8,4,4,116.8,4,256s112.8,252,252,252s252-112.8,252-252S395.2,4,256,4L256,4z"/>
  </g>
</g>
<g id="Capa_2">
  <g>
    <path class="st4" d="M372.3,162c-5,12.7-18.2,43.9-42,82.4c-29.6,47.9-69.7,56.5-70.1,56.6c-0.8,0.2-1.7,0.5-2.4,0.9l-52.6,31.5
      c-9.1,5.5-21,2.8-26.9-6.1c-3-4.5-4-9.9-2.9-15.2c1.1-5.3,4.2-9.8,8.8-12.7c40.3-25.7,47.6-28.5,47.5-28.7c4.1,0,7.5-3,7.5-7.1
      c0.8-4.7,14.4-26.7,27.8-40.1c2.1-2.1,2.8-5.4,1.6-8.2c-1.2-2.8-3.9-4.6-6.9-4.6c-23.3,0-40.1-13.2-40.3-13.4
      c-0.8-0.6-1.6-1.1-2.5-1.4c-0.9-0.3-1.8-0.5-2.7-0.5c-0.9,0-1.8,0.2-2.7,0.6c-2.6,1.3-4.2,3.4-4.2,6.3
      c-2.6,6.4-31.5,22.7-37.7,23.4c-3.1,0-5.8,1.9-7,4.8c-1.1,2.9-0.4,6.2,1.9,8.3c0.1,0.1,12.6,11.8,12.6,24.5c0,4.1,3.2,7.5,7.3,7.5
      c1.3,0.3,3.6,2.8,5.7,5.9c-4.7,2.9-10,6.3-16,10.1c-3.9,2.5-7.2,5.6-9.8,9.3l-25.7-51.4c-3.5-6.9-3.2-15,0.8-21.6l31.2-51.9
      c2.6-4.4,6.7-7.7,11.4-9.5l140.1-55.4L321.9,91l-143.2,56.6c-7.9,3-14.7,8.6-19,15.8l-31.2,51.9c-6.6,11.1-7.2,24.6-1.4,36.1
      l30.2,60.3c0.6,1.2,1.5,2.2,2.6,2.9c-0.4,7.4,1.6,14.8,5.9,21.1c3.4,5.1,7.8,8.9,12.8,11.6c5,2.6,10.6,4,16.3,4
      c6.1,0,12.3-1.6,18-5l51.6-30.9c8.1-2,48.2-14,78.6-63.1c32-51.7,45.2-90,45.7-91.6L372.3,162z M184.5,236.9
      c11.5-4.9,26.8-13.8,34.6-22.9c6,3.5,15.4,8,27.2,10.3c-8.8,10.9-17.7,24.3-20.9,33.2c-3.7,1.7-9.8,4.9-20.5,11.3
      c-2.6-4.1-6.5-8.8-11.3-11.3C192.2,249.5,188.2,242.2,184.5,236.9z"/>
    <path class="st4" d="M166.5,336.8c-10.8,6.8-17.4,18.6-17.4,31.7c0,20.7,16.8,37.5,37.5,37.5c20.7,0,37.5-16.8,37.5-37.5
      c0-8.7-3-16.9-8.6-23.6l-2.7,1.6C197.7,355.5,176.7,351,166.5,336.8L166.5,336.8z M186.6,421c-29,0-52.5-23.6-52.5-52.5
      c0-21.4,12.8-40.4,32.6-48.6c3.8-1.6,8.2,0.3,9.8,4.1c0.5,1.2,1.1,2.4,1.8,3.5c5.7,8.6,18,11.4,26.9,6.1l7.8-4.7
      c2.8-1.7,6.5-1.4,8.9,0.9c10.9,10,17.2,24.1,17.2,38.7C239.1,397.4,215.5,421,186.6,421L186.6,421z"/>
  </g>
</g>
</svg>
